<?xml version="1.0" encoding="UTF-8"?>
<svg width="100" height="100" viewBox="0 0 100 100" fill="none" xmlns="http://www.w3.org/2000/svg">
  <defs>
    <linearGradient id="iconGrad" x1="0%" y1="0%" x2="100%" y2="100%">
      <stop offset="0%" stop-color="#FF8C42"/>
      <stop offset="45%" stop-color="#E5533D"/>
      <stop offset="100%" stop-color="#C2185B"/>
    </linearGradient>
    <filter id="glow" x="-20%" y="-20%" width="140%" height="140%">
      <feGaussianBlur stdDeviation="2" result="blur"/>
      <feComposite in="SourceGraphic" in2="blur" operator="over"/>
    </filter>
  </defs>
  
  <g transform="translate(15, 15)" filter="url(#glow)">
    <!-- Upper dynamic swoosh -->
    <path d="M50 12 C62 6, 72 12, 72 26 C72 42, 56 52, 42 46 C32 42, 30 30, 38 22 C44 16, 46 14, 50 12 Z" 
          fill="url(#iconGrad)"/>
    <!-- Lower dynamic swoosh -->  
    <path d="M20 58 C8 64, -2 58, -2 44 C-2 28, 14 18, 28 24 C38 28, 40 40, 32 48 C26 54, 24 56, 20 58 Z" 
          fill="url(#iconGrad)" opacity="0.9"/>
    <!-- Energy core -->
    <circle cx="35" cy="35" r="8" fill="url(#iconGrad)" opacity="0.7"/>
  </g>
</svg>
